<svg xmlns="http://www.w3.org/2000/svg" width="45.101" height="45.091" viewBox="0 0 45.101 45.091">
    <path id="Icon_awesome-instagram" data-name="Icon awesome-instagram" d="M22.55,13.222A11.561,11.561,0,1,0,34.111,24.783,11.542,11.542,0,0,0,22.55,13.222Zm0,19.077a7.516,7.516,0,1,1,7.516-7.516A7.53,7.53,0,0,1,22.55,32.3Zm14.73-19.55a2.7,2.7,0,1,1-2.7-2.7A2.69,2.69,0,0,1,37.28,12.749Zm7.657,2.737c-.171-3.612-1-6.812-3.642-9.448S35.459,2.577,31.847,2.4c-3.723-.211-14.881-.211-18.6,0-3.6.171-6.8,1-9.448,3.632S.334,11.864.153,15.476c-.211,3.723-.211,14.881,0,18.6.171,3.612,1,6.812,3.642,9.448s5.836,3.461,9.448,3.642c3.723.211,14.881.211,18.6,0,3.612-.171,6.812-1,9.448-3.642s3.461-5.836,3.642-9.448c.211-3.723.211-14.871,0-18.594ZM40.128,38.074a7.609,7.609,0,0,1-4.286,4.286c-2.968,1.177-10.011.906-13.291.906s-10.333.262-13.291-.906a7.609,7.609,0,0,1-4.286-4.286C3.8,35.106,4.067,28.063,4.067,24.783s-.262-10.333.906-13.291A7.609,7.609,0,0,1,9.259,7.206C12.227,6.028,19.27,6.3,22.55,6.3s10.333-.262,13.291.906a7.609,7.609,0,0,1,4.286,4.286c1.177,2.968.906,10.011.906,13.291S41.3,35.116,40.128,38.074Z" transform="translate(0.005 -2.238)" fill="#fff"/>
</svg>
